<?xml version="1.0" encoding="utf-8"?>
<!-- Generator: Adobe Illustrator 27.2.0, SVG Export Plug-In . SVG Version: 6.00 Build 0)  -->
<svg version="1.1" id="Слой_1" xmlns="http://www.w3.org/2000/svg" xmlns:xlink="http://www.w3.org/1999/xlink" x="0px" y="0px"
	 viewBox="0 0 853 516" style="enable-background:new 0 0 853 516;" xml:space="preserve">
<style type="text/css">
	.st0{fill-rule:evenodd;clip-rule:evenodd;fill:#C9DBFF;}
	.st1{fill-rule:evenodd;clip-rule:evenodd;fill:#005DE0;}
	.st2{filter:url(#Adobe_OpacityMaskFilter);}
	.st3{fill-rule:evenodd;clip-rule:evenodd;fill:#FFFFFF;}
	.st4{mask:url(#b_00000021799543282729420440000017281593653675843988_);fill-rule:evenodd;clip-rule:evenodd;fill:#005DE0;}
	.st5{filter:url(#Adobe_OpacityMaskFilter_00000127722263408529719040000005172527133550822538_);}
	.st6{mask:url(#d_00000109736781851009456760000002654761583207777451_);fill-rule:evenodd;clip-rule:evenodd;fill:#005DE0;}
	.st7{filter:url(#Adobe_OpacityMaskFilter_00000092422582685113152340000010739158421901543074_);}
	.st8{mask:url(#d_00000032635308383545141450000016041700143185549245_);fill-rule:evenodd;clip-rule:evenodd;fill:#005DE0;}
	.st9{filter:url(#Adobe_OpacityMaskFilter_00000133512701756750642460000006322512911143175574_);}
	.st10{mask:url(#d_00000111876200377959388540000013552964281591282606_);fill-rule:evenodd;clip-rule:evenodd;fill:#005DE0;}
	.st11{filter:url(#Adobe_OpacityMaskFilter_00000019654797543531732080000006588407424210776761_);}
	.st12{mask:url(#d_00000004515828171147665590000000747713971787157168_);fill-rule:evenodd;clip-rule:evenodd;fill:#005DE0;}
	.st13{filter:url(#Adobe_OpacityMaskFilter_00000031929684065393797970000008735065753266269106_);}
	.st14{mask:url(#d_00000089548248153732725120000000949565721590117549_);fill-rule:evenodd;clip-rule:evenodd;fill:#C9DBFF;}
	.st15{filter:url(#Adobe_OpacityMaskFilter_00000127031575798941177460000003253133027295323326_);}
	.st16{mask:url(#d_00000071523878550295329050000005759107705339861406_);fill-rule:evenodd;clip-rule:evenodd;fill:#005DE0;}
	.st17{filter:url(#Adobe_OpacityMaskFilter_00000148652477013763332640000016433442809501382024_);}
	.st18{mask:url(#d_00000102512431139418042490000006031599534458769813_);fill-rule:evenodd;clip-rule:evenodd;fill:#005DE0;}
	.st19{filter:url(#Adobe_OpacityMaskFilter_00000042696124356705031060000015053652564784157106_);}
	.st20{mask:url(#d_00000000916077847557463450000004616151211158984849_);fill-rule:evenodd;clip-rule:evenodd;fill:#005DE0;}
	.st21{filter:url(#Adobe_OpacityMaskFilter_00000016762347678128619580000012957305831036384406_);}
	.st22{mask:url(#d_00000098931058703038980900000015132552438015459488_);fill-rule:evenodd;clip-rule:evenodd;fill:#C9DBFF;}
	.st23{filter:url(#Adobe_OpacityMaskFilter_00000129177532263094216110000012723352424279978641_);}
	.st24{mask:url(#d_00000134959051791013740410000012807038408132814761_);fill-rule:evenodd;clip-rule:evenodd;fill:#005DE0;}
	.st25{filter:url(#Adobe_OpacityMaskFilter_00000098188529724898290720000003166907272583699897_);}
	.st26{mask:url(#d_00000114056397466463303710000002259612977694707608_);fill-rule:evenodd;clip-rule:evenodd;fill:#005DE0;}
	.st27{filter:url(#Adobe_OpacityMaskFilter_00000150795108931499853970000005054332332280972964_);}
	.st28{mask:url(#d_00000031922422035162842490000004038377273899868556_);fill-rule:evenodd;clip-rule:evenodd;fill:#005DE0;}
	.st29{filter:url(#Adobe_OpacityMaskFilter_00000160159529189623102610000010421413028188839072_);}
	.st30{mask:url(#d_00000072969522054437114290000009193501104957671333_);fill-rule:evenodd;clip-rule:evenodd;fill:#005DE0;}
	.st31{filter:url(#Adobe_OpacityMaskFilter_00000001632591284471961950000011285836347278708352_);}
	.st32{mask:url(#d_00000007428717935740139210000016975809660117299603_);fill-rule:evenodd;clip-rule:evenodd;fill:#C9DBFF;}
	.st33{filter:url(#Adobe_OpacityMaskFilter_00000165944146256859672410000014161602369046440629_);}
	.st34{mask:url(#d_00000053518904668145277360000013391204804811390082_);fill-rule:evenodd;clip-rule:evenodd;fill:#005DE0;}
	.st35{filter:url(#Adobe_OpacityMaskFilter_00000010269274593086120530000004453366364077352081_);}
	.st36{mask:url(#d_00000160175684345235057040000012523580043579688082_);fill-rule:evenodd;clip-rule:evenodd;fill:#C9DBFF;}
	.st37{filter:url(#Adobe_OpacityMaskFilter_00000110444652808728523680000012113021774326674074_);}
	.st38{mask:url(#d_00000059306858020589589770000016787680251531897492_);fill:#005DE0;stroke:#005DE0;}
	.st39{filter:url(#Adobe_OpacityMaskFilter_00000122688522346777717250000003085680952297692856_);}
	.st40{mask:url(#d_00000166636600824413612050000017440766763234039713_);fill-rule:evenodd;clip-rule:evenodd;fill:#005DE0;}
	.st41{filter:url(#Adobe_OpacityMaskFilter_00000059287553478530451130000018250660995859658903_);}
	.st42{mask:url(#d_00000080884890284573125560000018018874574549655686_);fill:#005DE0;stroke:#005DE0;}
	.st43{filter:url(#Adobe_OpacityMaskFilter_00000072271275183042928010000018123070756036008889_);}
	.st44{mask:url(#d_00000104671760412394503400000011136307575843182987_);fill-rule:evenodd;clip-rule:evenodd;fill:#005DE0;}
	.st45{filter:url(#Adobe_OpacityMaskFilter_00000121261055161226741240000015181021746374365086_);}
	.st46{mask:url(#d_00000165221345838915388700000001272432815488636829_);fill:#005DE0;stroke:#005DE0;stroke-width:2.4;}
	.st47{filter:url(#Adobe_OpacityMaskFilter_00000049937328186441114450000008069928463553618615_);}
	.st48{mask:url(#d_00000139989651370274170130000003139870119939146683_);fill-rule:evenodd;clip-rule:evenodd;fill:#4231C8;}
	.st49{filter:url(#Adobe_OpacityMaskFilter_00000060020745223567618680000008596045683668326078_);}
	.st50{mask:url(#d_00000148647496135275919870000010473504531781851574_);fill:#005DE0;stroke:#005DE0;stroke-width:2;}
	.st51{filter:url(#Adobe_OpacityMaskFilter_00000042716336056441458140000008988428561681676186_);}
	.st52{mask:url(#d_00000166662254834208831460000010751276814631066522_);fill-rule:evenodd;clip-rule:evenodd;fill:#005DE0;}
	.st53{filter:url(#Adobe_OpacityMaskFilter_00000129192056244399776010000011512515644642841488_);}
	.st54{mask:url(#d_00000054265740842789625750000000069346349263617717_);fill-rule:evenodd;clip-rule:evenodd;fill:#005DE0;}
	.st55{filter:url(#Adobe_OpacityMaskFilter_00000150823056839326932910000012957369202177839805_);}
	.st56{mask:url(#d_00000151545798783288504070000003468471188793137796_);fill-rule:evenodd;clip-rule:evenodd;fill:#005DE0;}
	.st57{filter:url(#Adobe_OpacityMaskFilter_00000100378658373071215280000007471148064279201456_);}
	.st58{mask:url(#d_00000047762845758164133240000005425766383234281882_);fill-rule:evenodd;clip-rule:evenodd;fill:#C9DBFF;}
	.st59{filter:url(#Adobe_OpacityMaskFilter_00000175284874020518284900000003055428012329569176_);}
	.st60{mask:url(#d_00000061469353881032430970000013929886152279760041_);fill-rule:evenodd;clip-rule:evenodd;fill:#005DE0;}
	.st61{fill-rule:evenodd;clip-rule:evenodd;fill:#D9D6F4;}
	.st62{fill-rule:evenodd;clip-rule:evenodd;fill:#ECEAF9;}
</style>
<g>
	<g>
		<path class="st0" d="M402.1,186.1l-34-19.5c-1-0.6-2.5-0.6-3.5,0l-34,19.5c-1,0.6-1.7,1.9-1.7,3v39.1c0,1.1,0.8,2.5,1.7,3l34,19.5
			c1,0.6,2.5,0.6,3.5,0l34-19.5c1-0.6,1.7-1.9,1.7-3v-39.1C403.9,188,403.1,186.7,402.1,186.1"/>
		<path class="st1" d="M242.3,300.6v-38.9l-22.8,38.9H242.3z M169,339c-2.2,0-3.8-0.6-4.7-1.9c-1-1.3-1.5-2.7-1.5-4.3
			c0-1.1,0.2-2.3,0.5-3.6c0.3-1.4,0.8-2.4,1.4-3.3l76.9-126.5c0.8-1.3,1.6-2.1,2.5-2.4c0.9-0.3,2.6-0.5,4.9-0.5h25
			c1.1,0.1,2.3,0.6,3.5,1.5c1.2,0.9,1.8,2.1,1.8,3.5v98.8h13.6c1.5,0,2.8,0.4,3.8,1.2c1,0.8,1.5,2.1,1.5,4v28.3
			c0,1.3-0.5,2.5-1.5,3.6c-1,1.1-2.3,1.6-3.8,1.6h-13.6v20.5c0,3.3-1.8,5-5.4,5h-28.4c-3.3,0-5-1.7-5-5V339L169,339L169,339z
			 M367.1,280.5c0,6.3,1.1,12.2,3.3,17.7c2.2,5.5,5.3,10.2,9.2,14.3c3.9,4.1,8.5,7.3,13.8,9.6c5.3,2.3,11.1,3.5,17.4,3.5
			c6.2,0,12-1.2,17.4-3.5c5.4-2.3,10-5.5,14-9.6c3.9-4.1,7-8.8,9.3-14.3c2.3-5.5,3.4-11.4,3.4-17.7c0-6.3-1.1-12.2-3.4-17.7
			c-2.3-5.5-5.4-10.4-9.3-14.5c-3.9-4.1-8.6-7.3-14-9.7c-5.4-2.4-11.2-3.6-17.4-3.6c-6.3,0-12,1.2-17.4,3.6
			c-5.3,2.4-9.9,5.6-13.8,9.7c-3.9,4.1-7,8.9-9.2,14.5C368.2,268.3,367.1,274.2,367.1,280.5 M324.3,280.6c0-8,1-15.7,3.1-23
			c2-7.3,4.9-14.2,8.7-20.6c3.8-6.4,8.3-12.3,13.5-17.5c5.2-5.2,11.1-9.8,17.5-13.5c6.4-3.7,13.3-6.6,20.6-8.7
			c7.3-2.1,15-3.1,23-3.1c7.9,0,15.6,1,22.9,3.1c7.4,2.1,14.3,5,20.7,8.7c6.4,3.7,12.3,8.3,17.5,13.5c5.2,5.2,9.7,11.1,13.5,17.5
			c3.7,6.4,6.6,13.3,8.7,20.6c2.1,7.3,3.1,15,3.1,23c0,8-1,15.7-3.1,23c-2.1,7.3-5,14.2-8.7,20.6c-3.7,6.4-8.2,12.2-13.5,17.4
			c-5.2,5.2-11.1,9.8-17.5,13.5c-6.4,3.8-13.3,6.7-20.7,8.7c-7.4,2-15,3.1-22.9,3.1c-8,0-15.7-1-23-3.1c-7.3-2-14.2-4.9-20.6-8.7
			c-6.4-3.7-12.2-8.3-17.5-13.5c-5.2-5.2-9.8-11.1-13.5-17.4c-3.8-6.4-6.7-13.2-8.7-20.6C325.4,296.3,324.3,288.6,324.3,280.6
			 M599.6,300.6v-38.9l-22.8,38.9H599.6z M526.3,339c-2.2,0-3.8-0.6-4.7-1.9c-1-1.3-1.5-2.7-1.5-4.3c0-1.1,0.2-2.3,0.5-3.6
			c0.3-1.4,0.8-2.4,1.4-3.3l76.9-126.5c0.8-1.3,1.6-2.1,2.5-2.4c0.9-0.3,2.6-0.5,4.9-0.5h25c1.1,0.1,2.3,0.6,3.5,1.5
			c1.2,0.9,1.8,2.1,1.8,3.5v98.8h13.6c1.5,0,2.8,0.4,3.8,1.2c1,0.8,1.5,2.1,1.5,4v28.3c0,1.3-0.5,2.5-1.5,3.6
			c-1,1.1-2.3,1.6-3.8,1.6h-13.6v20.5c0,3.3-1.8,5-5.4,5h-28.4c-3.3,0-5-1.7-5-5V339H526.3z"/>
		<path class="st0" d="M670.5,209.1c0-1.8,0.3-3.4,1-5c0.7-1.6,1.6-3,2.8-4.1c1.2-1.2,2.6-2.1,4.1-2.8c1.6-0.7,3.3-1,5-1
			c1.9,0,3.6,0.3,5.2,1c1.6,0.7,3,1.6,4.1,2.8c1.1,1.2,2,2.5,2.7,4.1c0.7,1.6,1,3.3,1,5c0,1.8-0.3,3.4-1,5c-0.6,1.5-1.6,2.9-2.7,4.1
			c-1.1,1.2-2.5,2.1-4.1,2.8c-1.6,0.7-3.3,1-5.2,1c-1.8,0-3.4-0.3-5-1c-1.5-0.7-2.9-1.6-4.1-2.8c-1.2-1.2-2.1-2.6-2.8-4.1
			C670.8,212.5,670.4,210.8,670.5,209.1L670.5,209.1z M671,178c0-2.9,0.6-5.4,1.9-7.6c1.3-2.2,2.8-4.2,4.6-6
			c1.9-1.8,3.9-3.5,6.1-5.1c2.1-1.5,4.1-3.1,6.1-4.9c1.9-1.7,3.4-3.5,4.6-5.5c1.2-1.9,1.9-4.2,1.9-6.7c0-1.5-0.3-3-1-4.4
			c-0.7-1.4-1.6-2.7-2.7-3.8c-1.1-1.1-2.4-2-3.9-2.6c-1.5-0.6-3.1-1-4.7-1c-1.6,0-3.2,0.3-4.6,1c-1.5,0.7-2.8,1.6-3.9,2.7
			c-1.1,1.1-2.1,2.5-2.7,3.9c-0.7,1.4-1,3-1,4.6v1.3c0,1.1-0.3,1.8-0.9,2.2c-0.6,0.4-1.4,0.6-2.4,0.6h-17.7c-1.2,0-2-0.3-2.3-1
			s-0.5-1.3-0.5-2v-2.4c0-5,1-9.6,3-13.7c2-4.2,4.6-7.7,7.9-10.7c3.3-3,7.1-5.3,11.5-7c4.3-1.7,8.9-2.5,13.7-2.5
			c4.9,0,9.5,0.9,13.8,2.6c4.3,1.8,8.1,4.2,11.4,7.3c3.3,3.1,5.8,6.8,7.7,11c1.9,4.3,2.8,8.9,2.8,13.9c0,4.4-0.5,8.1-1.6,11.1
			c-1.1,2.9-2.5,5.4-4.1,7.5c-1.6,2-3.4,3.7-5.3,5.1c-1.8,1.3-3.6,2.6-5.5,3.8c-1.7,1.2-3.2,2.5-4.4,3.8c-1.2,1.3-2,2.9-2.2,4.9v5.8
			c0,2.4-1.3,3.6-3.9,3.6h-17.8c-2.4,0-3.6-1.2-3.6-3.6V178z"/>
		<path class="st0" d="M209,456.7c0-1.2,0.2-2.3,0.7-3.4c0.4-1,1.1-2,1.9-2.8c0.8-0.8,1.7-1.4,2.7-1.9c1-0.5,2.2-0.7,3.3-0.7
			c1.2,0,2.4,0.2,3.4,0.7c1,0.4,2,1.1,2.7,1.9c0.8,0.8,1.4,1.7,1.8,2.8c0.4,1.1,0.7,2.2,0.7,3.4c0,1.1-0.2,2.3-0.7,3.3
			c-0.4,1-1,1.9-1.8,2.7c-0.8,0.8-1.7,1.4-2.7,1.9c-1.1,0.5-2.2,0.7-3.4,0.7c-1.1,0-2.3-0.2-3.3-0.7c-1-0.4-1.9-1.1-2.7-1.9
			c-0.8-0.8-1.4-1.7-1.9-2.7C209.2,459,209,457.9,209,456.7L209,456.7z M209.4,436c0-1.9,0.4-3.6,1.2-5.1c0.8-1.5,1.9-2.8,3.1-4
			c1.3-1.2,2.6-2.4,4-3.4c1.4-1,2.8-2.1,4-3.3c1.2-1.1,2.3-2.3,3.1-3.6c0.8-1.3,1.2-2.8,1.2-4.5c0-1-0.2-2-0.7-2.9
			c-0.9-1.9-2.4-3.4-4.4-4.3c-1-0.4-2.1-0.6-3.1-0.6c-1.1,0-2.1,0.2-3.1,0.7c-1,0.4-1.9,1.1-2.6,1.8c-0.8,0.8-1.4,1.6-1.8,2.6
			c-0.4,1-0.7,2-0.7,3v0.9c0,0.7-0.2,1.2-0.6,1.5c-0.4,0.3-0.9,0.4-1.6,0.4h-11.8c-0.8,0-1.3-0.2-1.5-0.6c-0.2-0.4-0.4-0.8-0.4-1.3
			v-1.6c0-3.3,0.7-6.4,2-9.1c1.3-2.8,3.1-5.2,5.3-7.2c2.2-2,4.8-3.5,7.7-4.7c2.9-1.1,6-1.7,9.1-1.7c3.3,0,6.3,0.6,9.2,1.8
			c2.9,1.2,5.4,2.8,7.6,4.9c2.2,2.1,3.9,4.5,5.1,7.4c1.3,2.8,1.9,5.9,1.9,9.2c0,2.9-0.4,5.4-1.1,7.4c-0.7,2-1.6,3.6-2.7,5
			c-1.1,1.4-2.3,2.5-3.6,3.4c-1.2,0.9-2.4,1.7-3.6,2.6c-1.1,0.8-2.1,1.6-2.9,2.5c-0.8,0.9-1.3,2-1.5,3.3v3.9c0,1.6-0.9,2.4-2.6,2.4
			h-11.9c-1.6,0-2.4-0.8-2.4-2.4L209.4,436L209.4,436z M513.7,83.6l-23.1-13.3c-0.7-0.4-1.7-0.4-2.4,0L465,83.6
			c-0.7,0.4-1.2,1.3-1.2,2.1v26.6c0,0.8,0.5,1.7,1.2,2.1l23.1,13.3c0.7,0.4,1.7,0.4,2.4,0l23.1-13.3c0.7-0.4,1.2-1.3,1.2-2.1V85.7
			C514.9,84.9,514.3,84,513.7,83.6"/>
		<path class="st0" d="M370.6,110.2l-5.2-5.2l-9.2,9.2L347,105l-5.2,5.2l9.2,9.2l-9.2,9.2l5.2,5.2l9.2-9.2l9.2,9.2l5.2-5.2l-9.2-9.2
			L370.6,110.2z"/>
		<path class="st0" d="M400,284.1h11.7l-4.9,12.8l17-18.6H413l5.6-12.5L400,284.1z"/>
		<path class="st0" d="M325.8,414.8c-0.2,0.6-0.6,1.1-1,1.5c-0.9,0.9-2.1,1.4-3.4,1.4c-0.6,0-1.2-0.1-1.8-0.4
			c-0.6-0.2-1.1-0.6-1.5-1c-0.4-0.4-0.8-0.9-1-1.5c-0.3-0.6-0.4-1.2-0.4-1.8c0-0.7,0.1-1.3,0.4-1.9c0.2-0.6,0.6-1.1,1-1.5
			c0.4-0.4,0.9-0.8,1.5-1c0.6-0.3,1.2-0.4,1.8-0.4c1.3,0,2.5,0.5,3.4,1.4c0.4,0.4,0.8,0.9,1,1.5c0.2,0.6,0.4,1.2,0.4,1.9
			C326.2,413.6,326,414.2,325.8,414.8L325.8,414.8z M317,384.1c0-0.6,0.3-0.9,1-0.9h7c0.6,0,0.9,0.3,0.9,0.9v19.7
			c0,0.2-0.1,0.5-0.2,0.6c-0.2,0.2-0.4,0.3-0.7,0.3h-7c-0.2,0-0.4-0.1-0.7-0.2c-0.2-0.1-0.4-0.4-0.3-0.7L317,384.1L317,384.1z
			 M360.1,421l-35.4-61.3c-1.8-3.1-4.8-3.1-6.6,0L282.8,421c-1.8,3.1-0.3,5.7,3.3,5.7h70.7C360.4,426.7,361.9,424.1,360.1,421
			L360.1,421z"/>
		<path class="st0" d="M253.2,28.9h8.5l4.3-7.4l-4.3-7.4h-8.5l-4.3,7.4L253.2,28.9z M262.5,31.9h-10.2c-0.5,0-1-0.3-1.3-0.8
			l-5.1-8.9c-0.3-0.5-0.3-1,0-1.5l5.1-8.9c0.3-0.5,0.8-0.7,1.3-0.8h10.2c0.5,0,1,0.3,1.3,0.8l5.1,8.9c0.3,0.5,0.3,1,0,1.5l-5.1,8.9
			C263.6,31.6,263.1,31.9,262.5,31.9L262.5,31.9z"/>
		<path class="st1" d="M271.2,167.8c-0.8,0-1.5-0.7-1.5-1.5v-15.8c0-5.5-4.5-10-10-10h-34.3c-0.8,0-1.5-0.7-1.5-1.5s0.7-1.5,1.5-1.5
			l0,0h34.3c7.2,0,13,5.8,13,13v15.8C272.7,167.1,272.1,167.8,271.2,167.8"/>
		<g transform="translate(223.849)">
			<defs>
				<filter id="Adobe_OpacityMaskFilter" filterUnits="userSpaceOnUse" x="0" y="0" width="67.1" height="167.8">
					<feColorMatrix  type="matrix" values="1 0 0 0 0  0 1 0 0 0  0 0 1 0 0  0 0 0 1 0"/>
				</filter>
			</defs>
			
				<mask maskUnits="userSpaceOnUse" x="0" y="0" width="67.1" height="167.8" id="b_00000021799543282729420440000017281593653675843988_">
				<g class="st2">
					<path id="a_00000078734205345304957420000004683828274222922637_" class="st3" d="M0,0h67.1v167.8H0V0z"/>
				</g>
			</mask>
			<path class="st4" d="M3,137.4h32.9c7.2,0,13,5.8,13,13v13.3c9.3-5.4,15.3-15.6,15.3-26.5c0-13.4-8.5-25.1-21.3-29.1
				c-0.6-0.2-1-0.8-1-1.4V39.1c-0.1-0.6,0.2-1.2,0.8-1.4c5.9-3.3,9.5-9.5,9.5-16.1C52.1,11.3,43.8,3,33.6,3
				c-10.2,0-18.5,8.3-18.5,18.5c0,6.7,3.6,12.9,9.5,16.1c0.5,0.3,0.8,0.9,0.8,1.5v67.6c0,0.7-0.4,1.2-1,1.4
				C11.5,112.3,3,124,3,137.4L3,137.4L3,137.4z M47.4,167.8c-0.8,0-1.5-0.7-1.5-1.5c0,0,0,0,0,0v-15.8c0-5.5-4.5-10-10-10H1.5
				c-0.8,0-1.5-0.6-1.5-1.4c0-0.6,0-1.1,0-1.7c0-14.3,8.9-26.9,22.3-31.6V39.8C16,35.9,12.1,29,12.1,21.5C12.1,9.6,21.7,0,33.6,0
				c11.9,0,21.5,9.6,21.5,21.5c0,7.5-3.9,14.4-10.2,18.3v65.9c13.4,4.8,22.3,17.3,22.3,31.6c0,12.9-7.5,24.8-19.1,30.3
				C47.8,167.7,47.6,167.8,47.4,167.8L47.4,167.8z"/>
		</g>
		<path class="st1" d="M243.6,167.8c-0.2,0-0.4,0-0.6-0.1c-11.1-5.3-18.5-16.3-19.1-28.6c0-0.8,0.6-1.5,1.4-1.6
			c0.8,0,1.5,0.6,1.6,1.4c0,0,0,0,0,0c0.5,10.4,6.2,19.8,15.2,25l0-24.9c0-0.8,0.7-1.5,1.5-1.5s1.5,0.7,1.5,1.5l0,27.4
			C245.1,167.1,244.4,167.8,243.6,167.8 M241.1,126.3h32.8c-2.3-4-6-7.1-10.5-8.6h-11.9C247.1,119.3,243.4,122.3,241.1,126.3
			 M276.2,129.1h-37.3c-0.8,0-1.4-0.6-1.4-1.4c0-0.2,0-0.4,0.1-0.5c2.5-5.8,7.3-10.2,13.3-12.1c0.1,0,0.3-0.1,0.4-0.1h12.4
			c0.1,0,0.3,0,0.4,0.1c6,1.9,10.9,6.3,13.3,12.1c0.3,0.7,0,1.5-0.7,1.8C276.5,129.1,276.4,129.1,276.2,129.1"/>
		<path class="st3" d="M241.4,142.6l0.7-2.3l0-1.4c0,0,0-1.5,1.5-1.5c1.5,0-3.1-3.7-3.1-3.7l-8.6-0.2l-5.1,3.7c0,0-0.1,1.3,0.2,3.1
			c0.2,1.8,7.5,2.8,7.5,2.8L241.4,142.6L241.4,142.6z"/>
		<path class="st1" d="M172.2,113.8h6.7l3.4-5.8l-3.4-5.8h-6.7l-3.4,5.8L172.2,113.8L172.2,113.8z M179.6,116.1h-8.1
			c-0.4,0-0.8-0.2-1-0.6l-4-7c-0.2-0.4-0.2-0.8,0-1.2l4-7c0.2-0.4,0.6-0.6,1-0.6h8.1c0.4,0,0.8,0.2,1,0.6l4,7c0.2,0.4,0.2,0.8,0,1.2
			l-4,7C180.4,115.9,180,116.1,179.6,116.1z M529.7,212.6v-4.8l7.1-7.1v4.8L529.7,212.6z M534.7,189.6l-5,5v-5H534.7z M536.8,196.5
			l-7.1,7.1v-4.8l7.1-7.1V196.5z M539.7,187.5L539.7,187.5c-0.2-0.4-0.5-0.7-0.8-0.8c0,0,0,0,0,0c-0.2-0.1-0.4-0.1-0.5-0.1h-10.1
			c-0.8,0-1.5,0.7-1.5,1.5v34.5l3-1.6v-4.2l7.1-7.1v4.8l-6,6l2.9-1.5l1.7,1.1l1.4-1.4v2.3l3,1.9v-34.9
			C539.8,187.9,539.8,187.7,539.7,187.5L539.7,187.5z"/>
		<path class="st0" d="M775,289.8l-12,12h4.8l12-12H775z M785.1,289.8l-12,12h4.8l12-12H785.1z M795.1,289.8l-12,12h4.8l12-12H795.1
			z M805.5,301.7v-2.3l-2.3,2.3H805.5z M765,289.8l-12,12h4.8l12-12H765z M805.1,289.8l-12,12h4.8l7.5-7.5v-4.4H805.1L805.1,289.8z
			 M745,289.8l-12,12h4.8l12-12H745z M704.9,289.8l-9.1,9.1v2.9h1.9l12-12H704.9L704.9,289.8z M714.9,289.8l-12,12h4.8l12-12H714.9z
			 M735,289.8l-12,12h4.8l12-12H735z M755,289.8l-12,12h4.8l12-12H755z M725,289.8l-12,12h4.8l12-12H725z"/>
		<defs>
			
				<filter id="Adobe_OpacityMaskFilter_00000072977270176266387100000007410944547285591193_" filterUnits="userSpaceOnUse" x="694.3" y="288.3" width="112.6" height="15">
				<feColorMatrix  type="matrix" values="1 0 0 0 0  0 1 0 0 0  0 0 1 0 0  0 0 0 1 0"/>
			</filter>
		</defs>
		
			<mask maskUnits="userSpaceOnUse" x="694.3" y="288.3" width="112.6" height="15" id="d_00000109736781851009456760000002654761583207777451_">
			<g style="filter:url(#Adobe_OpacityMaskFilter_00000072977270176266387100000007410944547285591193_);">
				<path id="c_00000051356049915143941510000009198048209586682283_" class="st3" d="M0,515.6h852.5V0H0V515.6z"/>
			</g>
		</mask>
		<path class="st6" d="M697.3,300.2H804v-9H697.3V300.2z M805.5,303.2H695.8c-0.8,0-1.5-0.7-1.5-1.5v-12c0-0.8,0.7-1.5,1.5-1.5
			h109.6c0.8,0,1.5,0.7,1.5,1.5v12C807,302.6,806.3,303.2,805.5,303.2z"/>
		<defs>
			
				<filter id="Adobe_OpacityMaskFilter_00000144319756301248993070000006661826576438344369_" filterUnits="userSpaceOnUse" x="682.7" y="300.2" width="34.7" height="52.8">
				<feColorMatrix  type="matrix" values="1 0 0 0 0  0 1 0 0 0  0 0 1 0 0  0 0 0 1 0"/>
			</filter>
		</defs>
		
			<mask maskUnits="userSpaceOnUse" x="682.7" y="300.2" width="34.7" height="52.8" id="d_00000032635308383545141450000016041700143185549245_">
			<g style="filter:url(#Adobe_OpacityMaskFilter_00000144319756301248993070000006661826576438344369_);">
				<path id="c_00000178202162374773592560000006871944733424982967_" class="st3" d="M0,515.6h852.5V0H0V515.6z"/>
			</g>
		</mask>
		<path class="st8" d="M686.4,350h8.8l18.5-46.8h-8.8L686.4,350z M696.2,353h-12c-0.8,0-1.5-0.7-1.5-1.5c0-0.2,0-0.4,0.1-0.6
			l19.7-49.8c0.2-0.6,0.8-0.9,1.4-0.9h12c0.8,0,1.5,0.7,1.5,1.5c0,0.2,0,0.4-0.1,0.6l-19.7,49.8C697.3,352.6,696.8,353,696.2,353
			L696.2,353z"/>
		<defs>
			
				<filter id="Adobe_OpacityMaskFilter_00000016046328560161634880000005891771835664801686_" filterUnits="userSpaceOnUse" x="708.4" y="300.2" width="90.5" height="52.8">
				<feColorMatrix  type="matrix" values="1 0 0 0 0  0 1 0 0 0  0 0 1 0 0  0 0 0 1 0"/>
			</filter>
		</defs>
		
			<mask maskUnits="userSpaceOnUse" x="708.4" y="300.2" width="90.5" height="52.8" id="d_00000111876200377959388540000013552964281591282606_">
			<g style="filter:url(#Adobe_OpacityMaskFilter_00000016046328560161634880000005891771835664801686_);">
				<path id="c_00000160191289002317218590000004953851547614773385_" class="st3" d="M0,515.6h852.5V0H0V515.6z"/>
			</g>
		</mask>
		<path class="st10" d="M725.2,326.7c-0.6,0-1.2-0.4-1.4-0.9l-9.3-23.5c-0.3-0.8,0.1-1.6,0.8-1.9c0.8-0.3,1.6,0.1,1.9,0.8l9.3,23.5
			c0.3,0.8-0.1,1.6-0.8,1.9C725.6,326.7,725.4,326.7,725.2,326.7 M735.6,353h-12c-0.6,0-1.2-0.4-1.4-0.9l-6.6-16.7
			c-0.3-0.8,0.1-1.6,0.8-1.9c0.8-0.3,1.6,0.1,1.9,0.8l6.3,15.8h8.8l-5.8-14.7c-0.3-0.8,0-1.6,0.8-2c0.8-0.3,1.6,0,2,0.8
			c0,0,0,0,0,0.1l6.6,16.7c0.3,0.8-0.1,1.6-0.8,1.9C736,353,735.8,353,735.6,353 M713.2,326.7c-0.6,0-1.2-0.4-1.4-0.9l-3.3-8.4
			c-0.3-0.8,0.1-1.6,0.8-1.9c0,0,0,0,0,0c0.8-0.3,1.6,0.1,1.9,0.8c0,0,0,0,0,0l3.3,8.4c0.3,0.8-0.1,1.6-0.8,1.9
			C713.6,326.7,713.4,326.7,713.2,326.7 M767.9,350h8.8l18.5-46.8h-8.8L767.9,350L767.9,350z M777.7,353h-12c-0.8,0-1.5-0.7-1.5-1.5
			c0-0.2,0-0.4,0.1-0.6l19.7-49.8c0.2-0.6,0.8-0.9,1.4-0.9h12c0.8,0,1.5,0.7,1.5,1.5c0,0.2,0,0.4-0.1,0.6l-19.7,49.8
			C778.8,352.6,778.3,353,777.7,353L777.7,353z"/>
		<defs>
			
				<filter id="Adobe_OpacityMaskFilter_00000011009164323362541420000016675829394276979374_" filterUnits="userSpaceOnUse" x="701.3" y="283.1" width="117.3" height="69.9">
				<feColorMatrix  type="matrix" values="1 0 0 0 0  0 1 0 0 0  0 0 1 0 0  0 0 0 1 0"/>
			</filter>
		</defs>
		
			<mask maskUnits="userSpaceOnUse" x="701.3" y="283.1" width="117.3" height="69.9" id="d_00000004515828171147665590000000747713971787157168_">
			<g style="filter:url(#Adobe_OpacityMaskFilter_00000011009164323362541420000016675829394276979374_);">
				<path id="c_00000021817968302642002780000012066924668241973436_" class="st3" d="M0,515.6h852.5V0H0V515.6z"/>
			</g>
		</mask>
		<path class="st12" d="M817.1,353h-12c-0.6,0-1.2-0.4-1.4-0.9L790,317.4c-0.3-0.8,0.1-1.6,0.8-1.9c0.8-0.3,1.6,0.1,1.9,0.8
			l13.4,33.7h8.8L796,302.3c-0.3-0.8,0.1-1.6,0.8-1.9c0.8-0.3,1.6,0.1,1.9,0.8l19.7,49.8c0.3,0.8-0.1,1.6-0.8,1.9
			C817.5,353,817.3,353,817.1,353 M704.8,291.3c-0.8,0-1.5-0.6-1.5-1.3v-5.1c0-0.7,0.7-1.3,1.5-1.3s1.5,0.6,1.5,1.3v5.1
			C706.3,290.7,705.6,291.3,704.8,291.3 M796.5,291.3c-0.8,0-1.5-0.6-1.5-1.3v-5.4c0-0.7,0.7-1.3,1.5-1.3c0.8,0,1.5,0.6,1.5,1.3v5.4
			C798,290.7,797.3,291.3,796.5,291.3 M772.3,336.3h-69.5c-0.8,0-1.5-0.7-1.5-1.5s0.7-1.5,1.5-1.5h69.5c0.8,0,1.5,0.7,1.5,1.5
			S773.2,336.3,772.3,336.3 M776.1,326.7h-69.5c-0.8,0-1.5-0.7-1.5-1.5s0.7-1.5,1.5-1.5h69.5c0.8,0,1.5,0.7,1.5,1.5
			S776.9,326.7,776.1,326.7"/>
		<defs>
			
				<filter id="Adobe_OpacityMaskFilter_00000033359714858327841930000008826800927799322271_" filterUnits="userSpaceOnUse" x="794" y="389.1" width="3" height="17.1">
				<feColorMatrix  type="matrix" values="1 0 0 0 0  0 1 0 0 0  0 0 1 0 0  0 0 0 1 0"/>
			</filter>
		</defs>
		
			<mask maskUnits="userSpaceOnUse" x="794" y="389.1" width="3" height="17.1" id="d_00000089548248153732725120000000949565721590117549_">
			<g style="filter:url(#Adobe_OpacityMaskFilter_00000033359714858327841930000008826800927799322271_);">
				<path id="c_00000016069622718637799790000014575708639093667722_" class="st3" d="M0,515.6h852.5V0H0V515.6z"/>
			</g>
		</mask>
		<path class="st14" d="M795.5,406.2c-0.8,0-1.5-0.7-1.5-1.5v-14.1c0-0.8,0.7-1.5,1.5-1.5s1.5,0.7,1.5,1.5v14.1
			C797,405.5,796.3,406.2,795.5,406.2"/>
		<defs>
			
				<filter id="Adobe_OpacityMaskFilter_00000092425265411058993410000008852132436916665511_" filterUnits="userSpaceOnUse" x="715.5" y="389.2" width="21.3" height="16.8">
				<feColorMatrix  type="matrix" values="1 0 0 0 0  0 1 0 0 0  0 0 1 0 0  0 0 0 1 0"/>
			</filter>
		</defs>
		
			<mask maskUnits="userSpaceOnUse" x="715.5" y="389.2" width="21.3" height="16.8" id="d_00000071523878550295329050000005759107705339861406_">
			<g style="filter:url(#Adobe_OpacityMaskFilter_00000092425265411058993410000008852132436916665511_);">
				<path id="c_00000158019910978316105100000005264971500243608248_" class="st3" d="M0,515.6h852.5V0H0V515.6z"/>
			</g>
		</mask>
		<path class="st16" d="M718.5,400l15.3,2.7v-10.2l-15.3,2.7V400z M735.3,406c-0.1,0-0.2,0-0.3,0l-18.3-3.2
			c-0.7-0.1-1.2-0.7-1.2-1.5V394c0-0.7,0.5-1.4,1.2-1.5l18.3-3.2c0.8-0.1,1.6,0.4,1.7,1.2c0,0.1,0,0.2,0,0.3v13.8
			C736.8,405.4,736.1,406,735.3,406L735.3,406z"/>
		<defs>
			
				<filter id="Adobe_OpacityMaskFilter_00000098930466291381489840000009203466309316335281_" filterUnits="userSpaceOnUse" x="733.8" y="396.1" width="55.6" height="3">
				<feColorMatrix  type="matrix" values="1 0 0 0 0  0 1 0 0 0  0 0 1 0 0  0 0 0 1 0"/>
			</filter>
		</defs>
		
			<mask maskUnits="userSpaceOnUse" x="733.8" y="396.1" width="55.6" height="3" id="d_00000102512431139418042490000006031599534458769813_">
			<g style="filter:url(#Adobe_OpacityMaskFilter_00000098930466291381489840000009203466309316335281_);">
				<path id="c_00000126315477484597529710000006628391198033791126_" class="st3" d="M0,515.6h852.5V0H0V515.6z"/>
			</g>
		</mask>
		<path class="st18" d="M787.9,399.1h-52.6c-0.8,0-1.5-0.7-1.5-1.5s0.7-1.5,1.5-1.5h52.6c0.8,0,1.5,0.7,1.5,1.5
			S788.7,399.1,787.9,399.1"/>
		<defs>
			
				<filter id="Adobe_OpacityMaskFilter_00000180367135103170437340000004775545505348664972_" filterUnits="userSpaceOnUse" x="786.4" y="380.9" width="66.1" height="33.4">
				<feColorMatrix  type="matrix" values="1 0 0 0 0  0 1 0 0 0  0 0 1 0 0  0 0 0 1 0"/>
			</filter>
		</defs>
		
			<mask maskUnits="userSpaceOnUse" x="786.4" y="380.9" width="66.1" height="33.4" id="d_00000000916077847557463450000004616151211158984849_">
			<g style="filter:url(#Adobe_OpacityMaskFilter_00000180367135103170437340000004775545505348664972_);">
				<path id="c_00000005261006992724392300000011821797926228604843_" class="st3" d="M0,515.6h852.5V0H0V515.6z"/>
			</g>
		</mask>
		<path class="st20" d="M801.7,402.7c5.7,0,12,2.3,18,4.5c5.8,2.1,11.3,4.1,16.1,4.1c7.5,0,13.7-6.1,13.7-13.7s-6.1-13.7-13.7-13.7
			c-4.8,0-10.3,2-16.1,4.1c-6,2.2-12.3,4.5-18,4.5c-4,0-6.7-0.5-9-1c-1.2-0.2-2.2-0.4-3.3-0.5v13.2c1.1-0.1,2.1-0.3,3.3-0.5
			C795,403.2,797.7,402.7,801.7,402.7 M835.8,414.3c-5.3,0-11.3-2.2-17.2-4.3c-5.8-2.1-11.8-4.3-17-4.3c-3.7,0-6.2,0.5-8.4,0.9
			c-1.8,0.4-3.4,0.7-5.4,0.7c-0.8,0-1.5-0.7-1.5-1.5v-16.4c0-0.8,0.7-1.5,1.5-1.5c1.9,0,3.6,0.3,5.4,0.7c2.2,0.4,4.7,0.9,8.4,0.9
			c5.2,0,11.2-2.2,17-4.3c5.8-2.1,11.8-4.3,17.2-4.3c9.2,0,16.7,7.5,16.7,16.7S845,414.3,835.8,414.3"/>
		<defs>
			
				<filter id="Adobe_OpacityMaskFilter_00000020369587042797733720000017011093755986929841_" filterUnits="userSpaceOnUse" x="91" y="293.9" width="747.8" height="105.7">
				<feColorMatrix  type="matrix" values="1 0 0 0 0  0 1 0 0 0  0 0 1 0 0  0 0 0 1 0"/>
			</filter>
		</defs>
		
			<mask maskUnits="userSpaceOnUse" x="91" y="293.9" width="747.8" height="105.7" id="d_00000098931058703038980900000015132552438015459488_">
			<g style="filter:url(#Adobe_OpacityMaskFilter_00000020369587042797733720000017011093755986929841_);">
				<path id="c_00000170253119394089709550000000655833235395884171_" class="st3" d="M0,515.6h852.5V0H0V515.6z"/>
			</g>
		</mask>
		<path class="st22" d="M836.7,395.6c1.1,0,2,0.9,2,2c0,1.1-0.9,2-2,2c0,0,0,0,0,0c-1.1,0-2-0.9-2-2S835.6,395.6,836.7,395.6
			 M828.9,395.6c1.1,0,2,0.9,2,2c0,1.1-0.9,2-2,2c-1.1,0-2-0.9-2-2C826.9,396.5,827.8,395.6,828.9,395.6 M821.1,395.6
			c1.1,0,2,0.9,2,2s-0.9,2-2,2c-1.1,0-2-0.9-2-2S820,395.6,821.1,395.6 M129.7,304.6h-32l2.4-10.7h27.3L129.7,304.6z M134.2,325.1
			H93.2L91,335.8h45.4L134.2,325.1z"/>
		<defs>
			
				<filter id="Adobe_OpacityMaskFilter_00000181766398376512424930000007618250368877252234_" filterUnits="userSpaceOnUse" x="84.2" y="267.8" width="58.9" height="92.5">
				<feColorMatrix  type="matrix" values="1 0 0 0 0  0 1 0 0 0  0 0 1 0 0  0 0 0 1 0"/>
			</filter>
		</defs>
		
			<mask maskUnits="userSpaceOnUse" x="84.2" y="267.8" width="58.9" height="92.5" id="d_00000134959051791013740410000012807038408132814761_">
			<g style="filter:url(#Adobe_OpacityMaskFilter_00000181766398376512424930000007618250368877252234_);">
				<path id="c_00000047028320935337742920000006934090886381783681_" class="st3" d="M0,515.6h852.5V0H0V515.6z"/>
			</g>
		</mask>
		<path class="st24" d="M141.6,360.2c-0.7,0-1.3-0.5-1.5-1.2l-19.4-88.2h-14.1l-19.4,88.2c-0.2,0.8-0.9,1.3-1.8,1.2
			c-0.8-0.2-1.3-0.9-1.2-1.8c0,0,0-0.1,0-0.1L104,269c0.2-0.7,0.8-1.2,1.5-1.2h16.5c0.7,0,1.3,0.5,1.5,1.2l19.7,89.4
			c0.2,0.8-0.3,1.6-1.1,1.8C141.8,360.2,141.7,360.2,141.6,360.2"/>
		<defs>
			
				<filter id="Adobe_OpacityMaskFilter_00000043414966448377034870000001427455117882830720_" filterUnits="userSpaceOnUse" x="43" y="136.4" width="461.6" height="259.2">
				<feColorMatrix  type="matrix" values="1 0 0 0 0  0 1 0 0 0  0 0 1 0 0  0 0 0 1 0"/>
			</filter>
		</defs>
		
			<mask maskUnits="userSpaceOnUse" x="43" y="136.4" width="461.6" height="259.2" id="d_00000114056397466463303710000002259612977694707608_">
			<g style="filter:url(#Adobe_OpacityMaskFilter_00000043414966448377034870000001427455117882830720_);">
				<path id="c_00000100368745347655179060000000408727869654089866_" class="st3" d="M0,515.6h852.5V0H0V515.6z"/>
			</g>
		</mask>
		<path class="st26" d="M75.7,363.6h75.9l-1.3-3.3H77L75.7,363.6z M153.8,366.6H73.6c-0.8,0-1.5-0.7-1.5-1.5c0-0.2,0-0.4,0.1-0.5
			l2.4-6.3c0.2-0.6,0.8-1,1.4-1h75.4c0.6,0,1.2,0.4,1.4,1l2.4,6.3c0.3,0.8-0.1,1.6-0.9,1.9C154.2,366.5,154,366.6,153.8,366.6
			L153.8,366.6z M56.7,366.6H44.5c-0.8,0-1.5-0.7-1.5-1.5s0.7-1.5,1.5-1.5h12.2c0.8,0,1.5,0.7,1.5,1.5S57.5,366.6,56.7,366.6
			 M53,387.1c-0.8,0-1.5-0.7-1.5-1.5c0-0.4,0.2-0.8,0.4-1.1l8.6-8.6c0.6-0.6,1.5-0.6,2.1,0c0.6,0.6,0.6,1.5,0,2.1c0,0,0,0,0,0
			l-8.6,8.6C53.8,386.9,53.4,387.1,53,387.1 M73.6,395.6c-0.8,0-1.5-0.7-1.5-1.5l0-12.2c0-0.8,0.7-1.5,1.5-1.5s1.5,0.7,1.5,1.5v12.2
			C75.1,394.9,74.4,395.6,73.6,395.6 M503.1,139.4h-37.8c-0.8,0-1.5-0.7-1.5-1.5s0.7-1.5,1.5-1.5h37.8c0.8,0,1.5,0.7,1.5,1.5
			S504,139.4,503.1,139.4 M503.1,146.6h-37.8c-0.8,0-1.5-0.7-1.5-1.5s0.7-1.5,1.5-1.5h37.8c0.8,0,1.5,0.7,1.5,1.5
			S504,146.6,503.1,146.6 M503.1,153.7h-37.8c-0.8,0-1.5-0.7-1.5-1.5s0.7-1.5,1.5-1.5h37.8c0.8,0,1.5,0.7,1.5,1.5
			S504,153.7,503.1,153.7"/>
		<defs>
			
				<filter id="Adobe_OpacityMaskFilter_00000101083393200495615140000002519655613963546025_" filterUnits="userSpaceOnUse" x="467" y="114.6" width="34.5" height="39.1">
				<feColorMatrix  type="matrix" values="1 0 0 0 0  0 1 0 0 0  0 0 1 0 0  0 0 0 1 0"/>
			</filter>
		</defs>
		
			<mask maskUnits="userSpaceOnUse" x="467" y="114.6" width="34.5" height="39.1" id="d_00000031922422035162842490000004038377273899868556_">
			<g style="filter:url(#Adobe_OpacityMaskFilter_00000101083393200495615140000002519655613963546025_);">
				<path id="c_00000156579612764566372490000005506273796728219543_" class="st3" d="M0,515.6h852.5V0H0V515.6z"/>
			</g>
		</mask>
		<path class="st28" d="M468.5,153.7c-0.8,0-1.5-0.7-1.5-1.5v-14.3c0-0.8,0.7-1.5,1.5-1.5s1.5,0.7,1.5,1.5v14.3
			C470,153.1,469.3,153.7,468.5,153.7 M500,153.7c-0.8,0-1.5-0.7-1.5-1.5v-14.3c0-0.8,0.7-1.5,1.5-1.5s1.5,0.7,1.5,1.5v14.3
			C501.5,153.1,500.8,153.7,500,153.7 M478.9,139.4c-0.8,0-1.5-0.7-1.5-1.5v-21.8c0-0.8,0.7-1.5,1.5-1.5s1.5,0.7,1.5,1.5v21.8
			C480.4,138.7,479.7,139.4,478.9,139.4"/>
		<defs>
			
				<filter id="Adobe_OpacityMaskFilter_00000029018241877659252640000008716489237206890114_" filterUnits="userSpaceOnUse" x="466" y="103.2" width="24.7" height="36.2">
				<feColorMatrix  type="matrix" values="1 0 0 0 0  0 1 0 0 0  0 0 1 0 0  0 0 0 1 0"/>
			</filter>
		</defs>
		
			<mask maskUnits="userSpaceOnUse" x="466" y="103.2" width="24.7" height="36.2" id="d_00000072969522054437114290000009193501104957671333_">
			<g style="filter:url(#Adobe_OpacityMaskFilter_00000029018241877659252640000008716489237206890114_);">
				<path id="c_00000125584373457618113760000013989585173376149133_" class="st3" d="M0,515.6h852.5V0H0V515.6z"/>
			</g>
		</mask>
		<path class="st30" d="M478.9,117.6c-0.4,0-0.8-0.1-1.1-0.4l-11.4-11.4c-0.6-0.6-0.6-1.5-0.1-2.1s1.5-0.6,2.1-0.1c0,0,0,0,0.1,0.1
			l11.4,11.3c0.6,0.6,0.6,1.5,0,2.1C479.7,117.4,479.3,117.6,478.9,117.6 M489.2,139.4c-0.8,0-1.5-0.7-1.5-1.5v-21.8
			c0-0.8,0.7-1.5,1.5-1.5s1.5,0.7,1.5,1.5v21.8C490.7,138.7,490.1,139.4,489.2,139.4"/>
		<defs>
			
				<filter id="Adobe_OpacityMaskFilter_00000137814507875439068340000007689505332336283282_" filterUnits="userSpaceOnUse" x="357" y="47.1" width="178.2" height="455.4">
				<feColorMatrix  type="matrix" values="1 0 0 0 0  0 1 0 0 0  0 0 1 0 0  0 0 0 1 0"/>
			</filter>
		</defs>
		
			<mask maskUnits="userSpaceOnUse" x="357" y="47.1" width="178.2" height="455.4" id="d_00000007428717935740139210000016975809660117299603_">
			<g style="filter:url(#Adobe_OpacityMaskFilter_00000137814507875439068340000007689505332336283282_);">
				<path id="c_00000038394018856167871030000016410680631548869001_" class="st3" d="M0,515.6h852.5V0H0V515.6z"/>
			</g>
		</mask>
		<path class="st32" d="M489.2,117.6c-0.8,0-1.5-0.7-1.5-1.5c0-0.4,0.2-0.8,0.4-1.1l11.4-11.4c0.6-0.6,1.5-0.6,2.1-0.1
			c0.6,0.6,0.6,1.5,0.1,2.1c0,0,0,0.1-0.1,0.1l-11.3,11.4C490,117.4,489.6,117.6,489.2,117.6 M497.5,102.8c-0.4,0-0.8-0.1-1.1-0.4
			l-3.4-3.4l-3.4,3.4c-0.6,0.6-1.6,0.6-2.1,0l-3.4-3.4l-3.4,3.4c-0.6,0.6-1.5,0.6-2.1,0l-3.4-3.4l-3.4,3.4c-0.6,0.6-1.5,0.6-2.1,0
			c-0.6-0.6-0.6-1.5,0-2.1l4.5-4.5c0.6-0.6,1.5-0.6,2.1,0c0,0,0,0,0,0l3.4,3.4l3.4-3.4c0.6-0.6,1.5-0.6,2.1,0l3.4,3.4l3.4-3.4
			c0.6-0.6,1.6-0.6,2.1,0l4.5,4.5c0.6,0.6,0.6,1.5,0,2.1C498.3,102.7,497.9,102.8,497.5,102.8 M499.3,160.9h-30.1
			c-0.8,0-1.5-0.7-1.5-1.5s0.7-1.5,1.5-1.5l0,0h30.1c0.8,0,1.5,0.7,1.5,1.5S500.1,160.9,499.3,160.9 M484.2,57.1
			c-0.8,0-1.5-0.7-1.5-1.5v-7c0-0.8,0.7-1.5,1.5-1.5s1.5,0.7,1.5,1.5v7C485.7,56.4,485.1,57.1,484.2,57.1 M514.2,69.5
			c-0.8,0-1.5-0.7-1.5-1.5c0-0.4,0.2-0.8,0.4-1.1l5-5c0.6-0.6,1.5-0.6,2.1-0.1c0.6,0.6,0.6,1.5,0.1,2.1c0,0,0,0-0.1,0.1l-5,5
			C515,69.3,514.6,69.5,514.2,69.5 M533.7,99.5l-7,0c-0.8,0-1.5-0.7-1.5-1.5s0.7-1.5,1.5-1.5h7c0.8,0,1.5,0.7,1.5,1.5
			S534.5,99.5,533.7,99.5 M519.2,134.4c-0.4,0-0.8-0.1-1.1-0.4l-5-4.9c-0.6-0.6-0.6-1.5,0-2.1c0.6-0.6,1.5-0.6,2.1,0l4.9,4.9
			c0.6,0.6,0.6,1.5,0,2.1C520,134.3,519.6,134.4,519.2,134.4 M454.2,69.5c-0.4,0-0.8-0.1-1.1-0.4l-5-4.9c-0.6-0.6-0.6-1.5,0-2.1
			c0.6-0.6,1.5-0.6,2.1,0c0,0,0,0,0,0l5,5c0.6,0.6,0.6,1.5,0,2.1C455,69.3,454.6,69.5,454.2,69.5 M434.8,99.5
			c-0.8,0-1.5-0.7-1.5-1.5s0.7-1.5,1.5-1.5l7,0c0.8,0,1.5,0.7,1.5,1.5s-0.7,1.5-1.5,1.5l0,0L434.8,99.5L434.8,99.5z M449.3,134.4
			c-0.8,0-1.5-0.7-1.5-1.5c0-0.4,0.2-0.8,0.4-1.1l4.9-5c0.6-0.6,1.5-0.6,2.1-0.1s0.6,1.5,0.1,2.1c0,0,0,0-0.1,0.1l-4.9,5
			C450.1,134.3,449.7,134.4,449.3,134.4 M362.1,495.4c-1.1,0-2,0.9-2,2c0,1.1,0.9,2,2,2h32.3c1.1,0,2-0.9,2-2c0-1.1-0.9-2-2-2H362.1
			z M394.4,502.5h-32.3c-2.8,0-5-2.3-5-5c0-2.8,2.3-5,5-5h32.3c2.8,0,5,2.3,5,5C399.4,500.2,397.2,502.5,394.4,502.5z"/>
		<defs>
			
				<filter id="Adobe_OpacityMaskFilter_00000158707648258523020190000008732200703889075589_" filterUnits="userSpaceOnUse" x="368.5" y="374" width="46.1" height="141.6">
				<feColorMatrix  type="matrix" values="1 0 0 0 0  0 1 0 0 0  0 0 1 0 0  0 0 0 1 0"/>
			</filter>
		</defs>
		
			<mask maskUnits="userSpaceOnUse" x="368.5" y="374" width="46.1" height="141.6" id="d_00000053518904668145277360000013391204804811390082_">
			<g style="filter:url(#Adobe_OpacityMaskFilter_00000158707648258523020190000008732200703889075589_);">
				<path id="c_00000101804608833597851590000008961016755035202180_" class="st3" d="M0,515.6h852.5V0H0V515.6z"/>
			</g>
		</mask>
		<path class="st34" d="M370,515.6c-0.8,0-1.5-0.7-1.5-1.5V501c0-0.8,0.7-1.5,1.5-1.5s1.5,0.7,1.5,1.5v13.1
			C371.5,514.9,370.8,515.6,370,515.6 M386.6,515.6c-0.8,0-1.5-0.7-1.5-1.5V501c0-0.8,0.7-1.5,1.5-1.5s1.5,0.7,1.5,1.5v13.1
			C388.1,514.9,387.4,515.6,386.6,515.6 M382.2,454.7h-7.8c-0.8,0-1.5-0.7-1.5-1.5s0.7-1.5,1.5-1.5h7.8c0.8,0,1.5,0.7,1.5,1.5
			S383,454.7,382.2,454.7 M382.2,460.9h-7.8c-0.8,0-1.5-0.7-1.5-1.5s0.7-1.5,1.5-1.5h7.8c0.8,0,1.5,0.7,1.5,1.5
			S383,460.9,382.2,460.9 M382.2,467.5h-7.8c-0.8,0-1.5-0.7-1.5-1.5s0.7-1.5,1.5-1.5h7.8c0.8,0,1.5,0.7,1.5,1.5
			S383,467.5,382.2,467.5 M384,489.9c-0.8,0-1.5-0.7-1.5-1.5s0.7-1.5,1.5-1.5s1.5,0.7,1.5,1.5S384.9,489.9,384,489.9 M372.5,489.9
			c0.8,0,1.5-0.7,1.5-1.5c0-0.8-0.7-1.5-1.5-1.5s-1.5,0.7-1.5,1.5C371,489.2,371.7,489.9,372.5,489.9 M398.3,427.2
			c-0.8,0-1.5-0.7-1.5-1.5c0-0.4,0.2-0.8,0.4-1.1l3.5-3.5c0.3-0.3,0.7-0.4,1.1-0.4c5.4,0,9.8-4.4,9.8-9.8v-35.4
			c0-0.8,0.7-1.5,1.5-1.5s1.5,0.7,1.5,1.5v35.4c0,6.8-5.4,12.4-12.1,12.8l-3.1,3.1C399.1,427.1,398.7,427.2,398.3,427.2"/>
		<defs>
			
				<filter id="Adobe_OpacityMaskFilter_00000166643801117487820060000015716875821219484301_" filterUnits="userSpaceOnUse" x="243.1" y="149.8" width="151.6" height="304.9">
				<feColorMatrix  type="matrix" values="1 0 0 0 0  0 1 0 0 0  0 0 1 0 0  0 0 0 1 0"/>
			</filter>
		</defs>
		
			<mask maskUnits="userSpaceOnUse" x="243.1" y="149.8" width="151.6" height="304.9" id="d_00000160175684345235057040000012523580043579688082_">
			<g style="filter:url(#Adobe_OpacityMaskFilter_00000166643801117487820060000015716875821219484301_);">
				<path id="c_00000158016362831369885080000006748662890328397453_" class="st3" d="M0,515.6h852.5V0H0V515.6z"/>
			</g>
		</mask>
		<path class="st36" d="M378.3,454.7c-0.8,0-1.5-0.7-1.5-1.5v-19.7c0-6.8,5.4-12.4,12.1-12.8l3.3-3.3c0.6-0.6,1.5-0.6,2.1-0.1
			s0.6,1.5,0.1,2.1c0,0,0,0-0.1,0.1l-3.7,3.7c-0.3,0.3-0.7,0.4-1.1,0.4c-5.4,0-9.8,4.4-9.8,9.8v19.7
			C379.8,454,379.1,454.7,378.3,454.7 M244.7,172.6c0,0.4,0.3,0.9,0.7,1.2l11.5,6.6c0.4,0.2,1,0.2,1.3,0l11.5-6.6
			c0.4-0.2,0.7-0.7,0.7-1.2v-13.2c0-0.4-0.3-0.9-0.7-1.2l-11.5-6.6c-0.4-0.2-1-0.2-1.3,0l-11.5,6.6c-0.4,0.2-0.7,0.7-0.7,1.2V172.6
			L244.7,172.6z M258.1,182.1c-0.4,0.2-1,0.2-1.3,0l-13-7.5c-0.4-0.2-0.7-0.7-0.7-1.2v-14.9c0-0.4,0.3-0.9,0.7-1.2l13-7.5
			c0.4-0.2,1-0.2,1.3,0l13,7.5c0.4,0.2,0.7,0.7,0.7,1.2v14.9c0,0.4-0.3,0.9-0.7,1.2L258.1,182.1L258.1,182.1z"/>
		<defs>
			
				<filter id="Adobe_OpacityMaskFilter_00000078740935962848605900000003541930313233716609_" filterUnits="userSpaceOnUse" x="242.6" y="149.3" width="29.6" height="33.5">
				<feColorMatrix  type="matrix" values="1 0 0 0 0  0 1 0 0 0  0 0 1 0 0  0 0 0 1 0"/>
			</filter>
		</defs>
		
			<mask maskUnits="userSpaceOnUse" x="242.6" y="149.3" width="29.6" height="33.5" id="d_00000059306858020589589770000016787680251531897492_">
			<g style="filter:url(#Adobe_OpacityMaskFilter_00000078740935962848605900000003541930313233716609_);">
				<path id="c_00000038380532322173242580000009578099141876762275_" class="st3" d="M0,515.6h852.5V0H0V515.6z"/>
			</g>
		</mask>
		<path class="st38" d="M244.7,172.6c0,0.4,0.3,0.9,0.7,1.2l11.5,6.6c0.4,0.2,1,0.2,1.3,0l11.5-6.6c0.4-0.2,0.7-0.7,0.7-1.2v-13.2
			c0-0.4-0.3-0.9-0.7-1.2l-11.5-6.6c-0.4-0.2-1-0.2-1.3,0l-11.5,6.6c-0.4,0.2-0.7,0.7-0.7,1.2V172.6L244.7,172.6z M258.1,182.1
			c-0.4,0.2-1,0.2-1.3,0l-13-7.5c-0.4-0.2-0.7-0.7-0.7-1.2v-14.9c0-0.4,0.3-0.9,0.7-1.2l13-7.5c0.4-0.2,1-0.2,1.3,0l13,7.5
			c0.4,0.2,0.7,0.7,0.7,1.2v14.9c0,0.4-0.3,0.9-0.7,1.2L258.1,182.1L258.1,182.1z"/>
		<defs>
			
				<filter id="Adobe_OpacityMaskFilter_00000163047704223838749740000008633610370949191354_" filterUnits="userSpaceOnUse" x="248.5" y="155.6" width="269" height="226.8">
				<feColorMatrix  type="matrix" values="1 0 0 0 0  0 1 0 0 0  0 0 1 0 0  0 0 0 1 0"/>
			</filter>
		</defs>
		
			<mask maskUnits="userSpaceOnUse" x="248.5" y="155.6" width="269" height="226.8" id="d_00000166636600824413612050000017440766763234039713_">
			<g style="filter:url(#Adobe_OpacityMaskFilter_00000163047704223838749740000008633610370949191354_);">
				<path id="c_00000109711994525371704290000007803629640763685043_" class="st3" d="M0,515.6h852.5V0H0V515.6z"/>
			</g>
		</mask>
		<path class="st40" d="M256.9,158.5c0.4-0.2,1-0.2,1.4,0l3.1,1.8c0.4,0.2,0.4,0.6,0,0.8l-3.1,1.8c-0.4,0.2-1,0.2-1.4,0l-3.1-1.8
			c-0.4-0.2-0.4-0.6,0-0.8L256.9,158.5L256.9,158.5z M265.9,161.1c0.4-0.2,0.4-0.6,0-0.8l-7.7-4.5c-0.4-0.2-1-0.2-1.4,0l-7.7,4.5
			c-0.4,0.2-0.7,0.8-0.7,1.2v9.1c0,0.4,0.3,1,0.7,1.2l1.2,0.7c0.4,0.2,0.7,0,0.7-0.4V163c0-0.4,0.3-0.6,0.7-0.4l5,3
			c0.4,0.2,1,0.2,1.4,0L265.9,161.1L265.9,161.1z M490.4,372.8c0,0.4,0.3,0.9,0.7,1.2l11.5,6.6c0.4,0.2,1,0.2,1.3,0l11.5-6.6
			c0.4-0.2,0.7-0.7,0.7-1.2v-13.2c0-0.4-0.3-0.9-0.7-1.2l-11.5-6.6c-0.4-0.2-1-0.2-1.3,0l-11.5,6.6c-0.4,0.2-0.7,0.7-0.7,1.2
			L490.4,372.8L490.4,372.8z M503.9,382.3c-0.4,0.2-1,0.2-1.3,0l-13-7.5c-0.4-0.2-0.7-0.7-0.7-1.2v-14.9c0-0.4,0.3-0.9,0.7-1.2
			l13-7.5c0.4-0.2,1-0.2,1.3,0l13,7.5c0.4,0.2,0.7,0.7,0.7,1.2v14.9c0,0.4-0.3,0.9-0.7,1.2L503.9,382.3L503.9,382.3z"/>
		<defs>
			
				<filter id="Adobe_OpacityMaskFilter_00000003094794046117888370000013036062430145666483_" filterUnits="userSpaceOnUse" x="488.4" y="349.5" width="29.6" height="33.5">
				<feColorMatrix  type="matrix" values="1 0 0 0 0  0 1 0 0 0  0 0 1 0 0  0 0 0 1 0"/>
			</filter>
		</defs>
		
			<mask maskUnits="userSpaceOnUse" x="488.4" y="349.5" width="29.6" height="33.5" id="d_00000080884890284573125560000018018874574549655686_">
			<g style="filter:url(#Adobe_OpacityMaskFilter_00000003094794046117888370000013036062430145666483_);">
				<path id="c_00000056401071457199748740000007633933128231604927_" class="st3" d="M0,515.6h852.5V0H0V515.6z"/>
			</g>
		</mask>
		<path class="st42" d="M490.4,372.8c0,0.4,0.3,0.9,0.7,1.2l11.5,6.6c0.4,0.2,1,0.2,1.3,0l11.5-6.6c0.4-0.2,0.7-0.7,0.7-1.2v-13.2
			c0-0.4-0.3-0.9-0.7-1.2l-11.5-6.6c-0.4-0.2-1-0.2-1.3,0l-11.5,6.6c-0.4,0.2-0.7,0.7-0.7,1.2L490.4,372.8L490.4,372.8z
			 M503.9,382.3c-0.4,0.2-1,0.2-1.3,0l-13-7.5c-0.4-0.2-0.7-0.7-0.7-1.2v-14.9c0-0.4,0.3-0.9,0.7-1.2l13-7.5c0.4-0.2,1-0.2,1.3,0
			l13,7.5c0.4,0.2,0.7,0.7,0.7,1.2v14.9c0,0.4-0.3,0.9-0.7,1.2L503.9,382.3L503.9,382.3z"/>
		<defs>
			
				<filter id="Adobe_OpacityMaskFilter_00000061473515339708789370000011237094121352329883_" filterUnits="userSpaceOnUse" x="494.3" y="272.2" width="215.9" height="100.5">
				<feColorMatrix  type="matrix" values="1 0 0 0 0  0 1 0 0 0  0 0 1 0 0  0 0 0 1 0"/>
			</filter>
		</defs>
		
			<mask maskUnits="userSpaceOnUse" x="494.3" y="272.2" width="215.9" height="100.5" id="d_00000104671760412394503400000011136307575843182987_">
			<g style="filter:url(#Adobe_OpacityMaskFilter_00000061473515339708789370000011237094121352329883_);">
				<path id="c_00000082339748829770525540000014014741358156777357_" class="st3" d="M0,515.6h852.5V0H0V515.6z"/>
			</g>
		</mask>
		<path class="st44" d="M502.6,358.7c0.4-0.2,1-0.2,1.4,0l3.1,1.8c0.4,0.2,0.4,0.6,0,0.8l-3.1,1.8c-0.4,0.2-1,0.2-1.4,0l-3.1-1.8
			c-0.4-0.2-0.4-0.6,0-0.8L502.6,358.7L502.6,358.7z M511.7,361.3c0.4-0.2,0.4-0.6,0-0.8L504,356c-0.4-0.2-1-0.2-1.4,0l-7.7,4.5
			c-0.4,0.2-0.7,0.8-0.7,1.2v9.1c0,0.4,0.3,1,0.7,1.2l1.2,0.7c0.4,0.2,0.7,0,0.7-0.4v-8.9c0-0.4,0.3-0.6,0.7-0.4l5,3
			c0.4,0.2,1,0.2,1.4,0L511.7,361.3L511.7,361.3z M700,280.7c0,0.2,0.1,0.4,0.2,0.4l4.3,2.5c0.2,0.1,0.3,0.1,0.5,0l4.3-2.5
			c0.1-0.1,0.2-0.3,0.2-0.4v-4.9c0-0.2-0.1-0.3-0.2-0.4l-4.3-2.5c-0.2-0.1-0.3-0.1-0.5,0l-4.3,2.5c-0.1,0.1-0.2,0.3-0.2,0.4
			L700,280.7L700,280.7z M705.1,284.2c-0.2,0.1-0.3,0.1-0.5,0l-4.8-2.8c-0.1-0.1-0.2-0.3-0.2-0.4v-5.6c0-0.2,0.1-0.4,0.2-0.4
			l4.8-2.8c0.2-0.1,0.3-0.1,0.5,0l4.8,2.8c0.1,0.1,0.2,0.3,0.2,0.4v5.6c0,0.2-0.1,0.3-0.2,0.4L705.1,284.2z"/>
		<defs>
			
				<filter id="Adobe_OpacityMaskFilter_00000114059459242452416490000011800271182523595690_" filterUnits="userSpaceOnUse" x="698.3" y="271" width="13.1" height="14.5">
				<feColorMatrix  type="matrix" values="1 0 0 0 0  0 1 0 0 0  0 0 1 0 0  0 0 0 1 0"/>
			</filter>
		</defs>
		
			<mask maskUnits="userSpaceOnUse" x="698.3" y="271" width="13.1" height="14.5" id="d_00000165221345838915388700000001272432815488636829_">
			<g style="filter:url(#Adobe_OpacityMaskFilter_00000114059459242452416490000011800271182523595690_);">
				<path id="c_00000135659990090913293850000010665124433843029423_" class="st3" d="M0,515.6h852.5V0H0V515.6z"/>
			</g>
		</mask>
		<path class="st46" d="M700,280.7c0,0.2,0.1,0.4,0.2,0.4l4.3,2.5c0.2,0.1,0.3,0.1,0.5,0l4.3-2.5c0.1-0.1,0.2-0.3,0.2-0.4v-4.9
			c0-0.2-0.1-0.3-0.2-0.4l-4.3-2.5c-0.2-0.1-0.3-0.1-0.5,0l-4.3,2.5c-0.1,0.1-0.2,0.3-0.2,0.4L700,280.7L700,280.7z M705.1,284.2
			c-0.2,0.1-0.3,0.1-0.5,0l-4.8-2.8c-0.1-0.1-0.2-0.3-0.2-0.4v-5.6c0-0.2,0.1-0.4,0.2-0.4l4.8-2.8c0.2-0.1,0.3-0.1,0.5,0l4.8,2.8
			c0.1,0.1,0.2,0.3,0.2,0.4v5.6c0,0.2-0.1,0.3-0.2,0.4L705.1,284.2z"/>
		<defs>
			
				<filter id="Adobe_OpacityMaskFilter_00000026865419455025336260000017670337127664565950_" filterUnits="userSpaceOnUse" x="791.1" y="272.2" width="10.7" height="12.1">
				<feColorMatrix  type="matrix" values="1 0 0 0 0  0 1 0 0 0  0 0 1 0 0  0 0 0 1 0"/>
			</filter>
		</defs>
		
			<mask maskUnits="userSpaceOnUse" x="791.1" y="272.2" width="10.7" height="12.1" id="d_00000139989651370274170130000003139870119939146683_">
			<g style="filter:url(#Adobe_OpacityMaskFilter_00000026865419455025336260000017670337127664565950_);">
				<path id="c_00000000909861835270978980000017533959874192426645_" class="st3" d="M0,515.6h852.5V0H0V515.6z"/>
			</g>
		</mask>
		<path class="st48" d="M791.7,280.7c0,0.2,0.1,0.4,0.2,0.4l4.3,2.5c0.2,0.1,0.3,0.1,0.5,0l4.3-2.5c0.1-0.1,0.2-0.3,0.2-0.4v-4.9
			c0-0.2-0.1-0.3-0.2-0.4l-4.3-2.5c-0.2-0.1-0.3-0.1-0.5,0l-4.3,2.5c-0.1,0.1-0.2,0.3-0.2,0.4V280.7L791.7,280.7z M796.7,284.2
			c-0.2,0.1-0.3,0.1-0.5,0l-4.8-2.8c-0.1-0.1-0.2-0.3-0.2-0.4v-5.6c0-0.2,0.1-0.4,0.2-0.4l4.8-2.8c0.2-0.1,0.3-0.1,0.5,0l4.8,2.8
			c0.1,0.1,0.2,0.3,0.2,0.4v5.6c0,0.2-0.1,0.3-0.2,0.4L796.7,284.2z"/>
		<defs>
			
				<filter id="Adobe_OpacityMaskFilter_00000071552797506623818700000016243008135761030580_" filterUnits="userSpaceOnUse" x="790.1" y="271.2" width="12.7" height="14.1">
				<feColorMatrix  type="matrix" values="1 0 0 0 0  0 1 0 0 0  0 0 1 0 0  0 0 0 1 0"/>
			</filter>
		</defs>
		
			<mask maskUnits="userSpaceOnUse" x="790.1" y="271.2" width="12.7" height="14.1" id="d_00000148647496135275919870000010473504531781851574_">
			<g style="filter:url(#Adobe_OpacityMaskFilter_00000071552797506623818700000016243008135761030580_);">
				<path id="c_00000068674838693998536770000007300504416831247016_" class="st3" d="M0,515.6h852.5V0H0V515.6z"/>
			</g>
		</mask>
		<path class="st50" d="M791.7,280.7c0,0.2,0.1,0.4,0.2,0.4l4.3,2.5c0.2,0.1,0.3,0.1,0.5,0l4.3-2.5c0.1-0.1,0.2-0.3,0.2-0.4v-4.9
			c0-0.2-0.1-0.3-0.2-0.4l-4.3-2.5c-0.2-0.1-0.3-0.1-0.5,0l-4.3,2.5c-0.1,0.1-0.2,0.3-0.2,0.4V280.7L791.7,280.7z M796.7,284.2
			c-0.2,0.1-0.3,0.1-0.5,0l-4.8-2.8c-0.1-0.1-0.2-0.3-0.2-0.4v-5.6c0-0.2,0.1-0.4,0.2-0.4l4.8-2.8c0.2-0.1,0.3-0.1,0.5,0l4.8,2.8
			c0.1,0.1,0.2,0.3,0.2,0.4v5.6c0,0.2-0.1,0.3-0.2,0.4L796.7,284.2z"/>
		<defs>
			
				<filter id="Adobe_OpacityMaskFilter_00000181785225172801652070000008716075873806322846_" filterUnits="userSpaceOnUse" x="519" y="218.4" width="28.6" height="32.5">
				<feColorMatrix  type="matrix" values="1 0 0 0 0  0 1 0 0 0  0 0 1 0 0  0 0 0 1 0"/>
			</filter>
		</defs>
		
			<mask maskUnits="userSpaceOnUse" x="519" y="218.4" width="28.6" height="32.5" id="d_00000166662254834208831460000010751276814631066522_">
			<g style="filter:url(#Adobe_OpacityMaskFilter_00000181785225172801652070000008716075873806322846_);">
				<path id="c_00000129189162200376846390000003015376876684751545_" class="st3" d="M0,515.6h852.5V0H0V515.6z"/>
			</g>
		</mask>
		<path class="st52" d="M520.5,241.2c0,0.4,0.3,0.9,0.7,1.2l11.5,6.6c0.4,0.2,1,0.2,1.3,0l11.5-6.6c0.4-0.2,0.7-0.7,0.7-1.2V228
			c0-0.4-0.3-0.9-0.7-1.2l-11.5-6.6c-0.4-0.2-1-0.2-1.3,0l-11.5,6.6c-0.4,0.2-0.7,0.7-0.7,1.2V241.2L520.5,241.2z M533.9,250.7
			c-0.4,0.2-1,0.2-1.3,0l-13-7.5c-0.4-0.2-0.7-0.7-0.7-1.2v-14.9c0-0.4,0.3-0.9,0.7-1.2l13-7.5c0.4-0.2,1-0.2,1.3,0l13,7.5
			c0.4,0.2,0.7,0.7,0.7,1.2v14.9c0,0.4-0.3,0.9-0.7,1.2L533.9,250.7z"/>
		<defs>
			
				<filter id="Adobe_OpacityMaskFilter_00000088122070784639856380000007437238843912984253_" filterUnits="userSpaceOnUse" x="467" y="123" width="81.1" height="128.4">
				<feColorMatrix  type="matrix" values="1 0 0 0 0  0 1 0 0 0  0 0 1 0 0  0 0 0 1 0"/>
			</filter>
		</defs>
		
			<mask maskUnits="userSpaceOnUse" x="467" y="123" width="81.1" height="128.4" id="d_00000054265740842789625750000000069346349263617717_">
			<g style="filter:url(#Adobe_OpacityMaskFilter_00000088122070784639856380000007437238843912984253_);">
				<path id="c_00000160875500172145121900000013087039226313382582_" class="st3" d="M0,515.6h852.5V0H0V515.6z"/>
			</g>
		</mask>
		<path class="st54" d="M533.3,220.6c-0.1,0-0.3,0-0.4,0.1l-11.5,6.6c-0.2,0.1-0.4,0.5-0.4,0.7v13.2c0,0.2,0.2,0.6,0.4,0.7l11.5,6.6
			c0.2,0.1,0.6,0.1,0.8,0l11.5-6.6c0.2-0.1,0.4-0.5,0.4-0.7V228c0-0.2-0.2-0.6-0.4-0.7l-11.5-6.6
			C533.6,220.7,533.4,220.6,533.3,220.6 M533.3,249.6c-0.3,0-0.7-0.1-0.9-0.2l-11.5-6.6c-0.5-0.3-0.9-1-0.9-1.6V228
			c0-0.6,0.4-1.3,0.9-1.6l11.5-6.6c0.5-0.3,1.3-0.3,1.8,0l11.5,6.6c0.5,0.3,0.9,1,0.9,1.6v13.2c0,0.6-0.4,1.3-0.9,1.6l-11.5,6.6
			C533.9,249.6,533.6,249.6,533.3,249.6 M533.3,218.9c-0.1,0-0.3,0-0.4,0.1l-13,7.5c-0.2,0.1-0.4,0.5-0.4,0.7v14.9
			c0,0.2,0.2,0.6,0.4,0.7l13,7.5c0.2,0.1,0.6,0.1,0.8,0l13-7.5c0.2-0.1,0.4-0.5,0.4-0.7v-14.9c0-0.2-0.2-0.6-0.4-0.7l-13-7.5
			C533.6,218.9,533.4,218.9,533.3,218.9 M533.3,251.4c-0.3,0-0.7-0.1-0.9-0.2l-13-7.5c-0.5-0.3-0.9-1-0.9-1.6v-14.9
			c0-0.6,0.4-1.3,0.9-1.6l13-7.5c0.5-0.3,1.3-0.3,1.8,0l13,7.5c0.5,0.3,0.9,1,0.9,1.6v14.9c0,0.6-0.4,1.3-0.9,1.6l-13,7.5
			C533.9,251.3,533.6,251.4,533.3,251.4 M498.5,152.2h3V123h-3V152.2z M467,152.2h3V123h-3V152.2z"/>
		<defs>
			
				<filter id="Adobe_OpacityMaskFilter_00000005247455158470577070000010682593356816279211_" filterUnits="userSpaceOnUse" x="453.4" y="63.5" width="162.1" height="440.3">
				<feColorMatrix  type="matrix" values="1 0 0 0 0  0 1 0 0 0  0 0 1 0 0  0 0 0 1 0"/>
			</filter>
		</defs>
		
			<mask maskUnits="userSpaceOnUse" x="453.4" y="63.5" width="162.1" height="440.3" id="d_00000151545798783288504070000003468471188793137796_">
			<g style="filter:url(#Adobe_OpacityMaskFilter_00000005247455158470577070000010682593356816279211_);">
				<path id="c_00000091728753878934751730000007919557970533446335_" class="st3" d="M0,515.6h852.5V0H0V515.6z"/>
			</g>
		</mask>
		<path class="st56" d="M513.7,79.9l-28-16.1c-0.8-0.5-2.1-0.5-2.9,0l-28,16.1c-0.8,0.5-1.4,1.6-1.4,2.5v32.2c0,0.9,0.6,2,1.4,2.5
			l15.2,8.7V122l-11.9-6.9c-0.8-0.5-1.4-1.6-1.4-2.5V84.3c0-0.9,0.6-2,1.4-2.5l24.7-14.2c0.8-0.5,2.1-0.5,2.9,0l24.7,14.2
			c0.8,0.5,1.4,1.6,1.4,2.5v28.4c0,0.9-0.6,2-1.4,2.5l-11.9,6.9v3.8l15.2-8.7c0.8-0.5,1.4-1.6,1.4-2.5V82.4
			C515.1,81.5,514.5,80.3,513.7,79.9 M612.1,425.2c0,1.4-0.9,3-2.2,3.7l-32.7,18.8c-0.6,0.3-1.4,0.5-2.2,0.5s-1.5-0.2-2.2-0.5
			l-32.7-18.8c-1.2-0.7-2.2-2.3-2.2-3.7v-37.6c0-1.4,0.9-3,2.2-3.7L573,365c1.2-0.7,3.1-0.7,4.3,0l32.7,18.8
			c1.2,0.7,2.2,2.3,2.2,3.7L612.1,425.2L612.1,425.2z M580.9,493.2h-11.5l0-34.1h5.7l5.8,0L580.9,493.2L580.9,493.2z M575.2,500.7
			c-3.5,0-5.7-1.4-5.7-2.1v-2.4h11.5v2.4C580.9,499.4,578.7,500.7,575.2,500.7L575.2,500.7z M613.8,382.2l-37-21.3
			c-0.4-0.3-1-0.4-1.7-0.4c-0.6,0-1.2,0.1-1.7,0.4l-37,21.3c-0.9,0.5-1.7,1.8-1.7,2.9v42.6c0,1,0.8,2.3,1.7,2.9l37,21.3
			c0.1,0,0.1,0.1,0.2,0.1l0,4.3l-5.7,0c-0.8,0-1.5,0.7-1.5,1.5l0,41c0,2.9,3.8,5.1,8.7,5.1c5,0,8.7-2.2,8.7-5.1v-3.9l0-37.1
			c0-0.8-0.7-1.5-1.5-1.5h-5.8l0-4.3c0,0,0.1,0,0.1-0.1l37-21.3c0.9-0.5,1.7-1.8,1.7-2.9v-42.6C615.4,384.1,614.7,382.7,613.8,382.2
			L613.8,382.2z"/>
		<defs>
			
				<filter id="Adobe_OpacityMaskFilter_00000043447682683974068540000013300608310142189188_" filterUnits="userSpaceOnUse" x="548.1" y="375.7" width="54.1" height="61.3">
				<feColorMatrix  type="matrix" values="1 0 0 0 0  0 1 0 0 0  0 0 1 0 0  0 0 0 1 0"/>
			</filter>
		</defs>
		
			<mask maskUnits="userSpaceOnUse" x="548.1" y="375.7" width="54.1" height="61.3" id="d_00000047762845758164133240000005425766383234281882_">
			<g style="filter:url(#Adobe_OpacityMaskFilter_00000043447682683974068540000013300608310142189188_);">
				<path id="c_00000114756438163513867900000015653934639844404370_" class="st3" d="M0,515.6h852.5V0H0V515.6z"/>
			</g>
		</mask>
		<path class="st58" d="M600.9,390.1L576.4,376c-0.7-0.4-1.8-0.4-2.5,0l-24.5,14.1c-0.7,0.4-1.3,1.4-1.3,2.2v28.2
			c0,0.8,0.6,1.8,1.3,2.2l24.5,14.1c0.7,0.4,1.8,0.4,2.5,0l24.5-14.1c0.7-0.4,1.3-1.4,1.3-2.2v-28.2
			C602.2,391.5,601.6,390.5,600.9,390.1"/>
		<defs>
			
				<filter id="Adobe_OpacityMaskFilter_00000173878074012252828860000005809492710588779931_" filterUnits="userSpaceOnUse" x="364.3" y="227.1" width="175.3" height="265.3">
				<feColorMatrix  type="matrix" values="1 0 0 0 0  0 1 0 0 0  0 0 1 0 0  0 0 0 1 0"/>
			</filter>
		</defs>
		
			<mask maskUnits="userSpaceOnUse" x="364.3" y="227.1" width="175.3" height="265.3" id="d_00000061469353881032430970000013929886152279760041_">
			<g style="filter:url(#Adobe_OpacityMaskFilter_00000173878074012252828860000005809492710588779931_);">
				<path id="c_00000132780505313412824730000006740478420484707499_" class="st3" d="M0,515.6h852.5V0H0V515.6z"/>
			</g>
		</mask>
		<path class="st60" d="M526.9,231v6.7c0,0.2,0.1,0.4,0.3,0.5l5.8,3.4c0.2,0.1,0.4,0.1,0.5,0l5.8-3.4c0.2-0.1,0.3-0.3,0.3-0.5V231
			c0-0.2-0.1-0.4-0.3-0.5l-5.8-3.4c-0.2-0.1-0.4-0.1-0.5,0l-5.8,3.4C527,230.6,526.9,230.8,526.9,231 M391.1,476.9l-11.9-6.8
			c-0.6-0.3-1.4-0.3-2,0l-11.9,6.8c-0.6,0.3-1,1.1-1,1.8v13.7c0,0,0,0,0,0h3v-12.9c0-0.1,0.1-0.3,0.2-0.4l10.5-6c0.1,0,0.1,0,0.2,0
			c0.1,0,0.1,0,0.2,0l10.5,6.1c0.1,0,0.2,0.3,0.2,0.4v12.9h3c0,0,0,0,0,0v-13.7C392.2,478,391.7,477.2,391.1,476.9"/>
	</g>
	<path class="st0" d="M161.9,391.3c-2.9,0-5.7-1.1-7.7-3.2c-3.1-3.1-8.1-3.1-11.1,0c-4.2,4.2-11.2,4.2-15.4,0
		c-0.6-0.6-0.6-1.5,0-2.1c0.6-0.6,1.5-0.6,2.1,0c3.1,3.1,8.1,3.1,11.1,0c4.2-4.2,11.1-4.2,15.4,0c1.5,1.5,3.5,2.3,5.6,2.3
		c2.1,0,4.1-0.8,5.6-2.3c4.2-4.2,11.1-4.2,15.4,0c0.6,0.6,0.6,1.5,0,2.1c-0.6,0.6-1.5,0.6-2.1,0c-3.1-3.1-8.1-3.1-11.1,0
		C167.6,390.2,164.8,391.3,161.9,391.3 M180.8,229.1h-37c-0.8,0-1.5-0.7-1.5-1.5s0.7-1.5,1.5-1.5h37c0.8,0,1.5,0.7,1.5,1.5
		S181.6,229.1,180.8,229.1 M148.8,244.7h-19c-0.8,0-1.5-0.7-1.5-1.5s0.7-1.5,1.5-1.5h19c0.8,0,1.5,0.7,1.5,1.5
		S149.6,244.7,148.8,244.7 M709.4,247.8c2.5,1.3,4.5,3.3,5.7,5.7c1.3-2.5,3.3-4.5,5.7-5.7c-2.5-1.3-4.5-3.3-5.7-5.7
		C713.8,244.6,711.8,246.6,709.4,247.8 M715.1,261.2c-0.8,0-1.5-0.7-1.5-1.5c0-5.7-4.7-10.4-10.4-10.4c-0.8,0-1.5-0.7-1.5-1.5
		s0.7-1.5,1.5-1.5c5.7,0,10.4-4.7,10.4-10.4c0-0.8,0.7-1.5,1.5-1.5s1.5,0.7,1.5,1.5l0,0c0,5.7,4.7,10.4,10.4,10.4
		c0.8,0,1.5,0.7,1.5,1.5s-0.7,1.5-1.5,1.5c-5.7,0-10.4,4.7-10.4,10.4C716.6,260.6,715.9,261.2,715.1,261.2 M294.1,469.7
		c2.5,1.3,4.5,3.3,5.7,5.7c1.3-2.5,3.3-4.5,5.7-5.7c-2.5-1.3-4.5-3.3-5.7-5.7C298.5,466.4,296.5,468.4,294.1,469.7 M299.8,483.1
		c-0.8,0-1.5-0.7-1.5-1.5c0-5.7-4.7-10.4-10.4-10.4c-0.8,0-1.5-0.7-1.5-1.5s0.7-1.5,1.5-1.5c5.7,0,10.4-4.7,10.4-10.4
		c0-0.8,0.7-1.5,1.5-1.5s1.5,0.7,1.5,1.5c0,5.7,4.7,10.4,10.4,10.4c0.8,0,1.5,0.7,1.5,1.5s-0.7,1.5-1.5,1.5
		c-5.7,0-10.4,4.7-10.4,10.4C301.3,482.4,300.6,483.1,299.8,483.1 M495.1,183.8c-0.8,0-1.5-0.7-1.5-1.5v-4.4c0-0.8,0.7-1.5,1.5-1.5
		s1.5,0.7,1.5,1.5v4.4C496.6,183.1,496,183.8,495.1,183.8 M490.8,188.1h-4.4c-0.8,0-1.5-0.7-1.5-1.5s0.7-1.5,1.5-1.5h4.4
		c0.8,0,1.5,0.7,1.5,1.5S491.6,188.1,490.8,188.1 M495.1,196.9c-0.8,0-1.5-0.7-1.5-1.5V191c0-0.8,0.7-1.5,1.5-1.5s1.5,0.7,1.5,1.5
		v4.4C496.6,196.2,496,196.9,495.1,196.9 M503.9,188.1h-4.4c-0.8,0-1.5-0.7-1.5-1.5s0.7-1.5,1.5-1.5h4.4c0.8,0,1.5,0.7,1.5,1.5
		S504.7,188.1,503.9,188.1 M592.8,99.5c-0.8,0-1.5-0.7-1.5-1.5v-4.4c0-0.8,0.7-1.5,1.5-1.5s1.5,0.7,1.5,1.5V98
		C594.3,98.8,593.6,99.5,592.8,99.5 M588.5,103.8h-4.4c-0.8,0-1.5-0.7-1.5-1.5s0.7-1.5,1.5-1.5h4.4c0.8,0,1.5,0.7,1.5,1.5
		S589.3,103.8,588.5,103.8 M592.8,112.6c-0.8,0-1.5-0.7-1.5-1.5v-4.4c0-0.8,0.7-1.5,1.5-1.5s1.5,0.7,1.5,1.5v4.4
		C594.3,111.9,593.6,112.6,592.8,112.6 M601.5,103.8h-4.4c-0.8,0-1.5-0.7-1.5-1.5s0.7-1.5,1.5-1.5h4.4c0.8,0,1.5,0.7,1.5,1.5
		S602.4,103.8,601.5,103.8 M419.6,468.8c-0.8,0-1.5-0.7-1.5-1.5v-4.4c0-0.8,0.7-1.5,1.5-1.5s1.5,0.7,1.5,1.5v4.4
		C421.1,468.1,420.5,468.8,419.6,468.8 M415.3,473.1h-4.4c-0.8,0-1.5-0.7-1.5-1.5s0.7-1.5,1.5-1.5h4.4c0.8,0,1.5,0.7,1.5,1.5
		S416.1,473.1,415.3,473.1 M419.6,481.9c-0.8,0-1.5-0.7-1.5-1.5V476c0-0.8,0.7-1.5,1.5-1.5s1.5,0.7,1.5,1.5v4.4
		C421.1,481.2,420.5,481.9,419.6,481.9 M428.4,473.1H424c-0.8,0-1.5-0.7-1.5-1.5s0.7-1.5,1.5-1.5h4.4c0.8,0,1.5,0.7,1.5,1.5
		S429.2,473.1,428.4,473.1"/>
	<path class="st61" d="M641.4,395.7c-0.8,0-1.5-0.7-1.5-1.5v-4.4c0-0.8,0.7-1.5,1.5-1.5s1.5,0.7,1.5,1.5v4.4
		C642.9,395.1,642.2,395.7,641.4,395.7 M637.1,400.1h-4.4c-0.8,0-1.5-0.7-1.5-1.5s0.7-1.5,1.5-1.5h4.4c0.8,0,1.5,0.7,1.5,1.5
		S637.9,400.1,637.1,400.1 M641.4,408.8c-0.8,0-1.5-0.7-1.5-1.5v-4.4c0-0.8,0.7-1.5,1.5-1.5s1.5,0.7,1.5,1.5v4.4
		C642.9,408.1,642.2,408.8,641.4,408.8 M650.1,400.1h-4.4c-0.8,0-1.5-0.7-1.5-1.5s0.7-1.5,1.5-1.5h4.4c0.8,0,1.5,0.7,1.5,1.5
		S651,400.1,650.1,400.1"/>
	<path class="st62" d="M297,100.3c-0.8,0-1.5-0.7-1.5-1.5c0-0.4,0.2-0.8,0.4-1.1l7.9-7.9l-7.9-7.9c-0.6-0.6-0.6-1.5,0-2.1l7.9-7.9
		l-7.9-7.9c-0.6-0.6-0.6-1.5,0-2.1l7.9-7.9l-7.9-7.9c-0.6-0.6-0.6-1.5,0-2.1l7.9-7.9l-7.9-7.9c-0.6-0.6-0.6-1.5,0-2.1l9-9
		c0.6-0.6,1.5-0.6,2.1,0c0.6,0.6,0.6,1.5,0,2.1l-7.9,7.9l7.9,7.9c0.6,0.6,0.6,1.5,0,2.1c0,0,0,0,0,0l-7.9,7.9l7.9,7.9
		c0.6,0.6,0.6,1.5,0,2.1c0,0,0,0,0,0l-7.9,7.9l7.9,7.9c0.6,0.6,0.6,1.5,0,2.1l-7.9,7.9l7.9,7.9c0.6,0.6,0.6,1.5,0,2.1c0,0,0,0,0,0
		l-9,9C297.8,100.1,297.4,100.3,297,100.3 M744.4,197.4c-0.8,0-1.5-0.7-1.5-1.5c0-0.4,0.2-0.8,0.4-1.1l7.9-7.9l-7.9-7.9
		c-0.6-0.6-0.6-1.5,0-2.1l7.9-7.9l-7.9-7.9c-0.6-0.6-0.6-1.5,0-2.1l7.9-7.9l-7.9-7.9c-0.6-0.6-0.6-1.5,0-2.1l9-9
		c0.6-0.6,1.5-0.6,2.1-0.1c0.6,0.6,0.6,1.5,0.1,2.1c0,0,0,0-0.1,0.1l-7.9,7.9l7.9,7.9c0.6,0.6,0.6,1.5,0,2.1l-7.9,7.9l7.9,7.9
		c0.6,0.6,0.6,1.5,0,2.1l-7.9,7.9l7.9,7.9c0.6,0.6,0.6,1.5,0,2.1l-9,9C745.2,197.2,744.8,197.4,744.4,197.4 M1.5,374.8
		c-0.4,0-0.8-0.1-1.1-0.4c-0.6-0.6-0.6-1.5,0-2.1l7.9-7.9l-7.9-7.9c-0.6-0.6-0.6-1.5,0-2.1l7.9-7.9l-7.9-7.9c-0.6-0.6-0.6-1.5,0-2.1
		l9-9c0.6-0.6,1.6-0.5,2.1,0.1c0.5,0.6,0.5,1.5,0,2l-7.9,7.9l7.9,7.9c0.6,0.6,0.6,1.5,0,2.1l-7.9,7.9l7.9,7.9c0.6,0.6,0.6,1.5,0,2.1
		c0,0,0,0,0,0l-9,9C2.3,374.6,1.9,374.8,1.5,374.8"/>
</g>
</svg>
